<svg width="40" height="40" viewBox="0 0 40 40" fill="none" xmlns="http://www.w3.org/2000/svg">
<g clip-path="url(#clip0_236_10)">
<path fill-rule="evenodd" clip-rule="evenodd" d="M17.9288 38.7415H8.75C6.67875 38.7415 5 37.0627 5 34.9915V24.5777C5 22.7652 6.29625 21.2127 8.07875 20.889C10.7212 20.4077 15.2775 19.579 17.855 19.1115C19.2737 18.8527 20.7263 18.8527 22.145 19.1115C24.7225 19.579 29.2788 20.4077 31.9213 20.889C33.7038 21.2127 35 22.7652 35 24.5777C35 27.304 35 32.074 35 34.9915C35 37.0627 33.3212 38.7415 31.25 38.7415H17.9288ZM29.785 23.0415L29.79 23.0477C30.0088 23.3752 30.06 23.7864 29.9287 24.1577L29.0462 26.6577C28.9312 26.9839 28.685 27.249 28.3675 27.3877L26.7075 28.1115L27.3675 29.4327C27.5525 29.8014 27.5425 30.2377 27.3425 30.5989L24.2075 36.2415H31.25C31.94 36.2415 32.5 35.6815 32.5 34.9915C32.5 32.074 32.5 27.304 32.5 24.5777C32.5 23.974 32.0675 23.4565 31.4738 23.3477L29.785 23.0415ZM26.3663 22.419L21.6975 21.5702C20.575 21.3665 19.425 21.3665 18.3025 21.5702L13.6337 22.419L12.6363 23.9152L13.13 25.3127L15.5 26.3452C15.8138 26.4827 16.0575 26.7427 16.175 27.0652C16.2925 27.3877 16.2712 27.744 16.1175 28.0502L15.1625 29.9602L18.6525 36.2415H21.3475L24.8375 29.9602L23.8825 28.0502C23.7288 27.744 23.7075 27.3877 23.825 27.0652C23.9425 26.7427 24.1862 26.4827 24.5 26.3452L26.87 25.3127L27.3638 23.9152L26.3663 22.419ZM10.215 23.0415L8.52625 23.3477C7.9325 23.4565 7.5 23.974 7.5 24.5777V34.9915C7.5 35.6815 8.06 36.2415 8.75 36.2415H15.7925L12.6575 30.5989C12.4575 30.2377 12.4475 29.8014 12.6325 29.4327L13.2925 28.1115L11.6325 27.3877C11.315 27.249 11.0688 26.9839 10.9538 26.6577L10.0712 24.1577C9.94 23.7864 9.99125 23.3752 10.21 23.0477L10.215 23.0415ZM28.75 29.9915V32.4915C28.75 33.1815 29.31 33.7415 30 33.7415C30.69 33.7415 31.25 33.1815 31.25 32.4915V29.9915C31.25 29.3015 30.69 28.7415 30 28.7415C29.31 28.7415 28.75 29.3015 28.75 29.9915ZM20 1.24146C15.5163 1.24146 11.875 4.88271 11.875 9.36646C11.875 13.8502 15.5163 17.4915 20 17.4915C24.4837 17.4915 28.125 13.8502 28.125 9.36646C28.125 4.88271 24.4837 1.24146 20 1.24146ZM20 3.74146C23.105 3.74146 25.625 6.26146 25.625 9.36646C25.625 12.4715 23.105 14.9915 20 14.9915C16.895 14.9915 14.375 12.4715 14.375 9.36646C14.375 6.26146 16.895 3.74146 20 3.74146Z" fill="#C4CEFF"/>
</g>
<defs>
<clipPath id="clip0_236_10">
<rect width="40" height="40" fill="white" transform="translate(0 -0.00854492)"/>
</clipPath>
</defs>
</svg>
