<svg width="30" height="38" viewBox="0 0 30 38" fill="none" xmlns="http://www.w3.org/2000/svg">
<path fill-rule="evenodd" clip-rule="evenodd" d="M12.9288 37.7415H3.75C1.67875 37.7415 0 36.0627 0 33.9915V23.5777C0 21.7652 1.29625 20.2127 3.07875 19.889C5.72125 19.4077 10.2775 18.579 12.855 18.1115C14.2737 17.8527 15.7263 17.8527 17.145 18.1115C19.7225 18.579 24.2788 19.4077 26.9213 19.889C28.7038 20.2127 30 21.7652 30 23.5777C30 26.304 30 31.074 30 33.9915C30 36.0627 28.3212 37.7415 26.25 37.7415H12.9288ZM24.785 22.0415L24.79 22.0477C25.0088 22.3752 25.06 22.7864 24.9287 23.1577L24.0462 25.6577C23.9312 25.9839 23.685 26.249 23.3675 26.3877L21.7075 27.1115L22.3675 28.4327C22.5525 28.8014 22.5425 29.2377 22.3425 29.5989L19.2075 35.2415H26.25C26.94 35.2415 27.5 34.6815 27.5 33.9915C27.5 31.074 27.5 26.304 27.5 23.5777C27.5 22.974 27.0675 22.4565 26.4738 22.3477L24.785 22.0415ZM21.3663 21.419L16.6975 20.5702C15.575 20.3665 14.425 20.3665 13.3025 20.5702L8.63375 21.419L7.63625 22.9152L8.13 24.3127L10.5 25.3452C10.8138 25.4827 11.0575 25.7427 11.175 26.0652C11.2925 26.3877 11.2712 26.744 11.1175 27.0502L10.1625 28.9602L13.6525 35.2415H16.3475L19.8375 28.9602L18.8825 27.0502C18.7288 26.744 18.7075 26.3877 18.825 26.0652C18.9425 25.7427 19.1862 25.4827 19.5 25.3452L21.87 24.3127L22.3638 22.9152L21.3663 21.419ZM5.215 22.0415L3.52625 22.3477C2.9325 22.4565 2.5 22.974 2.5 23.5777V33.9915C2.5 34.6815 3.06 35.2415 3.75 35.2415H10.7925L7.6575 29.5989C7.4575 29.2377 7.4475 28.8014 7.6325 28.4327L8.2925 27.1115L6.6325 26.3877C6.315 26.249 6.06875 25.9839 5.95375 25.6577L5.07125 23.1577C4.94 22.7864 4.99125 22.3752 5.21 22.0477L5.215 22.0415ZM23.75 28.9915V31.4915C23.75 32.1815 24.31 32.7415 25 32.7415C25.69 32.7415 26.25 32.1815 26.25 31.4915V28.9915C26.25 28.3015 25.69 27.7415 25 27.7415C24.31 27.7415 23.75 28.3015 23.75 28.9915ZM15 0.241455C10.5163 0.241455 6.875 3.88271 6.875 8.36646C6.875 12.8502 10.5163 16.4915 15 16.4915C19.4837 16.4915 23.125 12.8502 23.125 8.36646C23.125 3.88271 19.4837 0.241455 15 0.241455ZM15 2.74146C18.105 2.74146 20.625 5.26146 20.625 8.36646C20.625 11.4715 18.105 13.9915 15 13.9915C11.895 13.9915 9.375 11.4715 9.375 8.36646C9.375 5.26146 11.895 2.74146 15 2.74146Z" fill="#C4CEFF"/>
</svg>
