<svg width="30" height="34" viewBox="0 0 30 34" fill="none" xmlns="http://www.w3.org/2000/svg">
<path d="M28.3335 10.6581L18.3335 1.89146C17.4168 1.07154 16.23 0.61824 15.0002 0.61824C13.7703 0.61824 12.5835 1.07154 11.6668 1.89146L1.66682 10.6581C1.13744 11.1316 0.714991 11.7124 0.427611 12.3619C0.140231 13.0113 -0.0054876 13.7146 0.00015799 14.4248V28.9915C0.00015799 30.3175 0.526942 31.5893 1.46462 32.527C2.40231 33.4647 3.67408 33.9915 5.00016 33.9915H25.0002C26.3262 33.9915 27.598 33.4647 28.5357 32.527C29.4734 31.5893 30.0002 30.3175 30.0002 28.9915V14.4081C30.0034 13.7007 29.8566 13.0007 29.5693 12.3543C29.282 11.7078 28.8608 11.1297 28.3335 10.6581ZM18.3335 30.6581H11.6668V22.3248C11.6668 21.8828 11.8424 21.4588 12.155 21.1463C12.4675 20.8337 12.8915 20.6581 13.3335 20.6581H16.6668C17.1089 20.6581 17.5328 20.8337 17.8453 21.1463C18.1579 21.4588 18.3335 21.8828 18.3335 22.3248V30.6581ZM26.6668 28.9915C26.6668 29.4335 26.4912 29.8574 26.1787 30.17C25.8661 30.4825 25.4422 30.6581 25.0002 30.6581H21.6668V22.3248C21.6668 20.9987 21.14 19.7269 20.2024 18.7893C19.2647 17.8516 17.9929 17.3248 16.6668 17.3248H13.3335C12.0074 17.3248 10.7356 17.8516 9.79796 18.7893C8.86027 19.7269 8.33349 20.9987 8.33349 22.3248V30.6581H5.00016C4.55813 30.6581 4.13421 30.4825 3.82165 30.17C3.50909 29.8574 3.33349 29.4335 3.33349 28.9915V14.4081C3.33379 14.1715 3.38448 13.9376 3.48219 13.7221C3.57989 13.5066 3.72238 13.3143 3.90016 13.1581L13.9002 4.40813C14.2043 4.14093 14.5953 3.99357 15.0002 3.99357C15.405 3.99357 15.796 4.14093 16.1002 4.40813L26.1002 13.1581C26.2779 13.3143 26.4204 13.5066 26.5181 13.7221C26.6158 13.9376 26.6665 14.1715 26.6668 14.4081V28.9915Z" fill="#241D79"/>
</svg>
