<svg width="40" height="40" viewBox="0 0 40 40" fill="none" xmlns="http://www.w3.org/2000/svg">
<path d="M30 8.74146H27.5V7.49146C27.5 7.15993 27.3683 6.84199 27.1339 6.60757C26.8995 6.37315 26.5815 6.24146 26.25 6.24146C25.9185 6.24146 25.6005 6.37315 25.3661 6.60757C25.1317 6.84199 25 7.15993 25 7.49146V8.74146H21.25V7.49146C21.25 7.15993 21.1183 6.84199 20.8839 6.60757C20.6495 6.37315 20.3315 6.24146 20 6.24146C19.6685 6.24146 19.3505 6.37315 19.1161 6.60757C18.8817 6.84199 18.75 7.15993 18.75 7.49146V8.74146H15V7.49146C15 7.15993 14.8683 6.84199 14.6339 6.60757C14.3995 6.37315 14.0815 6.24146 13.75 6.24146C13.4185 6.24146 13.1005 6.37315 12.8661 6.60757C12.6317 6.84199 12.5 7.15993 12.5 7.49146V8.74146H10C9.00544 8.74146 8.05161 9.13654 7.34835 9.8398C6.64509 10.5431 6.25 11.4969 6.25 12.4915V29.9915C6.25 30.986 6.64509 31.9398 7.34835 32.6431C8.05161 33.3464 9.00544 33.7415 10 33.7415H30C30.9946 33.7415 31.9484 33.3464 32.6517 32.6431C33.3549 31.9398 33.75 30.986 33.75 29.9915V12.4915C33.75 11.4969 33.3549 10.5431 32.6517 9.8398C31.9484 9.13654 30.9946 8.74146 30 8.74146ZM8.75 12.4915C8.75 12.1599 8.8817 11.842 9.11612 11.6076C9.35054 11.3732 9.66848 11.2415 10 11.2415H12.5V12.4915C12.5 12.823 12.6317 13.1409 12.8661 13.3753C13.1005 13.6098 13.4185 13.7415 13.75 13.7415C14.0815 13.7415 14.3995 13.6098 14.6339 13.3753C14.8683 13.1409 15 12.823 15 12.4915V11.2415H18.75V12.4915C18.75 12.823 18.8817 13.1409 19.1161 13.3753C19.3505 13.6098 19.6685 13.7415 20 13.7415C20.3315 13.7415 20.6495 13.6098 20.8839 13.3753C21.1183 13.1409 21.25 12.823 21.25 12.4915V11.2415H25V12.4915C25 12.823 25.1317 13.1409 25.3661 13.3753C25.6005 13.6098 25.9185 13.7415 26.25 13.7415C26.5815 13.7415 26.8995 13.6098 27.1339 13.3753C27.3683 13.1409 27.5 12.823 27.5 12.4915V11.2415H30C30.3315 11.2415 30.6495 11.3732 30.8839 11.6076C31.1183 11.842 31.25 12.1599 31.25 12.4915V16.2415H8.75V12.4915ZM31.25 29.9915C31.25 30.323 31.1183 30.6409 30.8839 30.8753C30.6495 31.1098 30.3315 31.2415 30 31.2415H10C9.66848 31.2415 9.35054 31.1098 9.11612 30.8753C8.8817 30.6409 8.75 30.323 8.75 29.9915V18.7415H31.25V29.9915Z" fill="#C4CEFF"/>
</svg>
