<svg width="34" height="28" viewBox="0 0 34 28" fill="none" xmlns="http://www.w3.org/2000/svg">
<path d="M20.8834 27.3248H20.5334C19.828 27.2548 19.1632 26.9617 18.6357 26.4882C18.1082 26.0146 17.7454 25.3852 17.6 24.6914L13.1334 3.99144L8.53337 14.6581C8.40326 14.9562 8.18875 15.2098 7.91629 15.3875C7.64383 15.5652 7.32532 15.6592 7.00004 15.6581H2.00004C1.55801 15.6581 1.13409 15.4825 0.821529 15.1699C0.508969 14.8574 0.333374 14.4335 0.333374 13.9914C0.333374 13.5494 0.508969 13.1255 0.821529 12.8129C1.13409 12.5004 1.55801 12.3248 2.00004 12.3248H5.90004L10.0834 2.67477C10.365 2.0272 10.845 1.4858 11.4541 1.12862C12.0633 0.771437 12.7701 0.616931 13.4727 0.687379C14.1753 0.757826 14.8374 1.04959 15.3636 1.5206C15.8897 1.9916 16.2526 2.61752 16.4 3.3081L20.8667 23.9914L25.4667 13.3581C25.5917 13.0537 25.8041 12.7932 26.0769 12.6093C26.3498 12.4254 26.671 12.3264 27 12.3248H32C32.4421 12.3248 32.866 12.5004 33.1786 12.8129C33.4911 13.1255 33.6667 13.5494 33.6667 13.9914C33.6667 14.4335 33.4911 14.8574 33.1786 15.1699C32.866 15.4825 32.4421 15.6581 32 15.6581H28.1L23.9167 25.3081C23.6613 25.9023 23.2385 26.4093 22.6999 26.7674C22.1613 27.1255 21.5301 27.3191 20.8834 27.3248Z" fill="#C4CEFF"/>
</svg>
