<svg width="40" height="40" viewBox="0 0 40 40" fill="none" xmlns="http://www.w3.org/2000/svg">
<g clip-path="url(#clip0_236_27)">
<path d="M23.8834 33.3248H23.5334C22.828 33.2548 22.1632 32.9617 21.6357 32.4882C21.1082 32.0146 20.7454 31.3852 20.6 30.6914L16.1334 9.99144L11.5334 20.6581C11.4033 20.9562 11.1888 21.2098 10.9163 21.3875C10.6438 21.5652 10.3253 21.6592 10 21.6581H5.00004C4.55801 21.6581 4.13409 21.4825 3.82153 21.1699C3.50897 20.8574 3.33337 20.4335 3.33337 19.9914C3.33337 19.5494 3.50897 19.1255 3.82153 18.8129C4.13409 18.5004 4.55801 18.3248 5.00004 18.3248H8.90004L13.0834 8.67477C13.365 8.0272 13.845 7.4858 14.4541 7.12862C15.0633 6.77144 15.7701 6.61693 16.4727 6.68738C17.1753 6.75783 17.8374 7.04959 18.3636 7.5206C18.8897 7.9916 19.2526 8.61752 19.4 9.3081L23.8667 29.9914L28.4667 19.3581C28.5917 19.0537 28.8041 18.7932 29.0769 18.6093C29.3498 18.4254 29.671 18.3264 30 18.3248H35C35.4421 18.3248 35.866 18.5004 36.1786 18.8129C36.4911 19.1255 36.6667 19.5494 36.6667 19.9914C36.6667 20.4335 36.4911 20.8574 36.1786 21.1699C35.866 21.4825 35.4421 21.6581 35 21.6581H31.1L26.9167 31.3081C26.6613 31.9023 26.2385 32.4093 25.6999 32.7674C25.1613 33.1255 24.5301 33.3191 23.8834 33.3248Z" fill="#C4CEFF"/>
</g>
<defs>
<clipPath id="clip0_236_27">
<rect width="40" height="40" fill="white" transform="translate(0 -0.00854492)"/>
</clipPath>
</defs>
</svg>
