<svg width="40" height="40" viewBox="0 0 40 40" fill="none" xmlns="http://www.w3.org/2000/svg">
<g clip-path="url(#clip0_236_22)">
<path d="M36.2362 21.835C33.9952 21.0229 31.5093 21.2034 29.4073 22.3289L25.9808 23.8703C25.704 22.2921 24.4919 21.1062 22.9959 21.0607C22.9871 21.0604 17.8583 21.0026 17.8583 21.0026C13.7532 19.8765 11.0858 21.3234 9.56421 22.7494C9.25301 23.041 8.97934 23.3413 8.73848 23.6374C8.32788 23.1952 7.6031 23.0771 7.07455 23.3677L2.41891 25.9268C1.81506 26.2588 1.55233 26.9871 1.80558 27.6273L6.35549 39.1292C6.65447 39.8849 7.57327 40.2189 8.29019 39.8248L12.9458 37.2656C13.3822 37.0257 13.6392 36.5787 13.6533 36.1077H20.6018C21.7352 36.1077 22.8542 35.81 23.8378 35.2468C23.8378 35.2468 36.9062 27.7503 36.9799 27.6833C38.81 26.0185 38.8664 22.788 36.2362 21.835C37.2854 22.2151 33.9952 21.0229 36.2362 21.835ZM8.33182 36.6795L4.79643 27.7422L7.03267 26.5131L10.5681 35.4503L8.33182 36.6795ZM35.2312 25.5687L22.4744 32.8741C21.9051 33.2002 21.2575 33.3725 20.6016 33.3725H12.6916L10.0357 26.6585C10.2632 26.1949 10.7113 25.4256 11.4391 24.7437C12.9296 23.3469 14.8942 22.9895 17.2787 23.6813C17.398 23.7159 17.5214 23.7341 17.6455 23.7356L22.9176 23.7949C23.0522 23.8065 23.3007 24.1057 23.3007 24.5594C23.3007 25.0264 23.0441 25.3242 22.9099 25.3242H17.7299V28.0594H22.9099C23.5516 28.0594 24.1488 27.8424 24.6459 27.4706L30.5775 24.8024C30.609 24.7882 30.6398 24.773 30.67 24.7565C32.0929 23.9828 33.7811 23.855 35.3015 24.406C35.9031 24.6241 35.4685 25.3279 35.2312 25.5687ZM26.9996 19.6994C21.5665 19.6994 17.1463 15.2789 17.1463 9.84539C17.1463 4.41197 21.5664 -0.00854492 26.9996 -0.00854492C32.4328 -0.00854492 36.8528 4.41197 36.8528 9.84539C36.8528 15.2789 32.4327 19.6994 26.9996 19.6994ZM26.9996 2.72667C23.0771 2.72667 19.886 5.92009 19.886 9.84539C19.886 13.7707 23.0772 16.9641 26.9996 16.9641C30.9222 16.9641 34.1133 13.7706 34.1133 9.84539C34.1133 5.92017 30.9221 2.72667 26.9996 2.72667Z" fill="#C4CEFF"/>
<path d="M27.6358 8.73069C26.5464 8.28334 26.4622 8.09112 26.4622 7.8683C26.4622 7.72599 26.5328 7.39513 27.1871 7.39513C27.7857 7.39513 28.5315 7.73112 29.0575 8.07736L29.7892 6.15941C29.2668 5.82684 28.6319 5.54112 28.0383 5.44975V4.20248H26.0874V5.57112C24.9284 5.93642 24.2142 6.86291 24.2142 8.01624C24.2142 9.54377 25.4363 10.2257 26.6299 10.6906C27.5836 11.0743 27.6635 11.368 27.6635 11.6132C27.6635 11.9903 27.3159 12.234 26.778 12.234C26.0765 12.234 25.2609 11.8294 24.6899 11.3867L23.9858 13.3354C24.5681 13.7868 25.2421 14.0848 26.0005 14.196V15.4884H27.9635V14.0815C29.1587 13.7009 29.9237 12.7108 29.9237 11.5268C29.9237 9.86958 28.7011 9.16206 27.6358 8.73069Z" fill="#C4CEFF"/>
</g>
<defs>
<clipPath id="clip0_236_22">
<rect width="40" height="40" fill="white" transform="translate(0 -0.00854492)"/>
</clipPath>
</defs>
</svg>
